HIERARCHY
ROOT joint_Root
{
  OFFSET 0 0 0
  CHANNELS 6 Xposition Yposition Zposition Zrotation Xrotation Yrotation
  JOINT Hips
  {
    OFFSET 0 93.9241 -3
    CHANNELS 6 Xposition Yposition Zposition Zrotation Xrotation Yrotation
    JOINT Spine
    {
      OFFSET 15.7357 0 0
      CHANNELS 6 Xposition Yposition Zposition Zrotation Xrotation Yrotation
      JOINT Chest
      {
        OFFSET 8.98455 -0.406207 0
        CHANNELS 6 Xposition Yposition Zposition Zrotation Xrotation Yrotation
        JOINT Neck
        {
          OFFSET 16.3773 0 0
          CHANNELS 6 Xposition Yposition Zposition Zrotation Xrotation Yrotation
          JOINT Head
          {
            OFFSET 6.45672 0 0
            CHANNELS 6 Xposition Yposition Zposition Zrotation Xrotation Yrotation
            End Site
            {
              OFFSET 0 0 0
            }
          }
        }
        JOINT Shoulder_L
        {
          OFFSET 12.9942 -0.242716 4.98039
          CHANNELS 6 Xposition Yposition Zposition Zrotation Xrotation Yrotation
          JOINT UpperArm_L
          {
            OFFSET 5.34809 0 0
            CHANNELS 6 Xposition Yposition Zposition Zrotation Xrotation Yrotation
            JOINT LowerArm_L
            {
              OFFSET 24.3286 1.87007e-05 0
              CHANNELS 6 Xposition Yposition Zposition Zrotation Xrotation Yrotation
              JOINT Hand_L
              {
                OFFSET 22.2916 0 0
                CHANNELS 6 Xposition Yposition Zposition Zrotation Xrotation Yrotation
                End Site
                {
                  OFFSET 0 0 0
                }
              }
            }
          }
        }
        JOINT Shoulder_R
        {
          OFFSET 12.9945 -0.242716 -4.98039
          CHANNELS 6 Xposition Yposition Zposition Zrotation Xrotation Yrotation
          JOINT UpperArm_R
          {
            OFFSET -5.34813 0 0
            CHANNELS 6 Xposition Yposition Zposition Zrotation Xrotation Yrotation
            JOINT LowerArm_R
            {
              OFFSET -24.3289 0.000322201 0
              CHANNELS 6 Xposition Yposition Zposition Zrotation Xrotation Yrotation
              JOINT Hand_R
              {
                OFFSET -22.2915 -0.000108084 0
                CHANNELS 6 Xposition Yposition Zposition Zrotation Xrotation Yrotation
                End Site
                {
                  OFFSET 0 0 0
                }
              }
            }
          }
        }
      }
    }
    JOINT UpperLeg_L
    {
      OFFSET -2.19248 -6.46944 0
      CHANNELS 6 Xposition Yposition Zposition Zrotation Xrotation Yrotation
      JOINT LowerLeg_L
      {
        OFFSET 39.0811 0 -1.23785e-05
        CHANNELS 6 Xposition Yposition Zposition Zrotation Xrotation Yrotation
        JOINT Foot_L
        {
          OFFSET 40.9854 0 -1.26872e-05
          CHANNELS 6 Xposition Yposition Zposition Zrotation Xrotation Yrotation
          JOINT Toes_L
          {
            OFFSET 11.7543 0 0
            CHANNELS 6 Xposition Yposition Zposition Zrotation Xrotation Yrotation
            End Site
            {
              OFFSET 0 0 0
            }
          }
        }
      }
    }
    JOINT UpperLeg_R
    {
      OFFSET -2.19251 6.46944 0
      CHANNELS 6 Xposition Yposition Zposition Zrotation Xrotation Yrotation
      JOINT LowerLeg_R
      {
        OFFSET -39.0811 -0.00228153 -0.0401928
        CHANNELS 6 Xposition Yposition Zposition Zrotation Xrotation Yrotation
        JOINT Foot_R
        {
          OFFSET -40.9854 0 0
          CHANNELS 6 Xposition Yposition Zposition Zrotation Xrotation Yrotation
          JOINT Toes_R
          {
            OFFSET -11.7543 0 0
            CHANNELS 6 Xposition Yposition Zposition Zrotation Xrotation Yrotation
            End Site
            {
              OFFSET 0 0 0
            }
          }
        }
      }
    }
  }
}
MOTION
Frames:	5
Frame Time:	0.0333333
0 0 0 0 0 -0 0.627361 89.046 -23.2087 94.096 3.22984 1.56396 15.7357 5.1072e-06 -5.51765e-07 134.524 88.3696 -136.599 8.98455 -0.406207 -4.3199e-07 -5.39487 2.52197 -4.03642 16.3773 -1.3905e-06 -6.99897e-07 -9.70887 -3.10745 -1.79378 6.45672 -1.25837e-06 -1.02172e-07 -1.47351 -8.24047 -0.92969 12.9942 -0.242716 4.98039 -90.1469 0.604368 -91.3415 5.34809 -7.22636e-06 -6.2814e-07 -29.6628 -75.2143 -10.1993 24.3286 1.87007e-05 4.90208e-06 -92.9843 -59.706 -92.5775 22.2916 -9.88446e-07 4.63217e-06 2.88833 5.12877 4.44577 12.9945 -0.242716 -4.98039 90.751 -4.36848 -95.235 -5.34813 -1.25947e-06 -3.79883e-06 -1.46307 -67.1036 18.3734 -24.3289 0.000322201 -8.65921e-06 -81.1141 -75.8604 -81.3784 -22.2915 -0.000108084 -4.47941e-06 5.20277 5.32575 -0.662487 -2.19248 -6.46944 -1.22534e-07 166.334 -9.62004 -17.6971 39.0811 -6.73843e-06 -1.23785e-05 0.283911 -0.376174 33.4077 40.9854 -6.48686e-06 -1.26872e-05 11.4158 2.20611 -65.8383 11.7543 -2.30145e-07 3.05095e-06 0.13029 -0.148153 -18.0153 -2.19251 6.46944 -1.45247e-06 176.532 0.973838 163.335 -39.0811 -0.00228153 -0.0401928 -0.558592 0.190459 70.8142 -40.9854 7.72618e-06 5.99936e-06 10.8931 -16.2287 -30.5082 -11.7543 -5.6619e-06 -5.58687e-06 0.65112 -0.741703 -22.0674 
0 0 0 0 0 -0 0.537191 89.9807 -18.8725 92.1728 3.20013 1.68537 15.7357 5.1072e-06 -5.51765e-07 123.296 88.6771 -124.437 8.98455 -0.406207 -4.3199e-07 -5.53894 1.58297 -2.20743 16.3773 -1.3905e-06 -6.99897e-07 -9.40817 -2.88216 -2.11702 6.45672 -1.25837e-06 -1.02172e-07 -0.846992 -7.48122 -1.17655 12.9942 -0.242716 4.98039 -90.0834 0.359347 -91.966 5.34809 -7.22636e-06 -6.2814e-07 -31.6149 -75.4912 -10.1922 24.3286 1.87007e-05 4.90208e-06 -91.9603 -59.1866 -91.6841 22.2916 -9.88446e-07 4.63217e-06 2.54314 5.1253 4.52758 12.9945 -0.242716 -4.98039 90.7461 -4.26609 -95.0685 -5.34813 -1.25947e-06 -3.79883e-06 -2.02625 -66.4114 17.1799 -24.3289 0.000322201 -8.65921e-06 -82.8138 -75.7659 -83.0315 -22.2915 -0.000108084 -4.47941e-06 4.84158 5.33313 -0.877222 -2.19248 -6.46944 -1.22534e-07 169.149 -8.56663 -12.8351 39.0811 -6.73843e-06 -1.23785e-05 0.218323 -0.318548 30.3802 40.9854 -6.48686e-06 -1.26872e-05 10.3785 1.31118 -67.3249 11.7543 -2.30145e-07 3.05095e-06 0.11193 -0.126817 -17.8102 -2.19251 6.46944 -1.45247e-06 178.58 -1.41583 158.033 -39.0811 -0.00228153 -0.0401928 -0.684147 0.242383 70.0811 -40.9854 7.72618e-06 5.99936e-06 15.6581 -20.856 -34.5309 -11.7543 -5.6619e-06 -5.58687e-06 0.655244 -0.746866 -22.1041 
0 0 0 0 0 -0 0.242273 90.9323 -14.7736 89.923 3.71439 1.25434 15.7357 5.1072e-06 -5.51765e-07 106.35 89.0359 -106.52 8.98455 -0.406207 -4.3199e-07 -5.9151 0.562295 -0.311199 16.3773 -1.3905e-06 -6.99897e-07 -9.01385 -3.04691 -2.15043 6.45672 -1.25837e-06 -1.02172e-07 -0.619948 -6.6668 -1.30315 12.9942 -0.242716 4.98039 -89.9301 -0.330097 -93.0285 5.34809 -7.22636e-06 -6.2814e-07 -32.5621 -75.2041 -8.77159 24.3286 1.87007e-05 4.90208e-06 -90.551 -58.168 -90.4681 22.2916 -9.88446e-07 4.63217e-06 1.91072 5.12175 4.61054 12.9945 -0.242716 -4.98039 90.8343 -4.42668 -94.3159 -5.34813 -1.25947e-06 -3.79883e-06 -3.33089 -66.3617 15.7591 -24.3289 0.000322201 -8.65921e-06 -82.1211 -75.439 -82.3706 -22.2915 -0.000108084 -4.47941e-06 4.4916 5.33153 -0.830217 -2.19248 -6.46944 -1.22534e-07 172.362 -8.99825 -8.01798 39.0811 -6.73843e-06 -1.23785e-05 0.1395 -0.239531 25.8839 40.9854 -6.48686e-06 -1.26872e-05 9.76447 2.47846 -68.1645 11.7543 -2.30145e-07 3.05095e-06 0.0896896 -0.101192 -17.5629 -2.19251 6.46944 -1.45247e-06 -179.396 -3.72745 153.543 -39.0811 -0.00228153 -0.0401928 -0.618955 0.2812 65.1671 -40.9854 7.72618e-06 5.99936e-06 16.6394 -24.5789 -39.316 -11.7543 -5.6619e-06 -5.58687e-06 0.611117 -0.691788 -21.7117 
0 0 0 0 0 -0 -0.0448939 91.6722 -10.8654 88.2214 4.13801 0.57063 15.7357 5.1072e-06 -5.51765e-07 77.8787 89.2204 -77.3476 8.98455 -0.406207 -4.3199e-07 -6.23956 -0.391759 1.04224 16.3773 -1.3905e-06 -6.99897e-07 -8.79454 -3.21347 -1.83637 6.45672 -1.25837e-06 -1.02172e-07 -0.580392 -5.95981 -1.32426 12.9942 -0.242716 4.98039 -89.8217 -0.910477 -93.932 5.34809 -7.22636e-06 -6.2814e-07 -33.1865 -75.2047 -8.00412 24.3286 1.87007e-05 4.90208e-06 -90.6293 -57.681 -90.5318 22.2916 -9.88446e-07 4.63217e-06 1.45482 5.13212 4.3678 12.9945 -0.242716 -4.98039 90.9137 -4.60199 -93.7601 -5.34813 -1.25947e-06 -3.79883e-06 -4.65228 -66.6214 14.4971 -24.3289 0.000322201 -8.65921e-06 -81.8754 -75.3076 -82.1368 -22.2915 -0.000108084 -4.47941e-06 4.31291 5.33644 -0.973513 -2.19248 -6.46944 -1.22534e-07 175.093 -10.123 -2.95453 39.0811 -6.73843e-06 -1.23785e-05 0.0614291 -0.131269 20.055 40.9854 -6.48686e-06 -1.26872e-05 9.21568 4.39064 -68.2636 11.7543 -2.30145e-07 3.05095e-06 0.0963309 -0.10881 -17.6366 -2.19251 6.46944 -1.45247e-06 -178.485 -5.74753 150.525 -39.0811 -0.00228153 -0.0401928 -0.435394 0.286779 56.1658 -40.9854 7.72618e-06 5.99936e-06 14.9234 -26.1332 -43.6298 -11.7543 -5.6619e-06 -5.58687e-06 0.604645 -0.683811 -21.6546 
0 0 0 0 0 -0 -0.105916 92.0447 -7.0592 87.9203 4.78636 -0.0296963 15.7357 5.1072e-06 -5.51765e-07 49.0334 89.0431 -48.3495 8.98455 -0.406207 -4.3199e-07 -6.31351 -1.33664 1.29612 16.3773 -1.3905e-06 -6.99897e-07 -8.84086 -3.34118 -1.52915 6.45672 -1.25837e-06 -1.02172e-07 -0.416645 -5.49744 -1.07943 12.9942 -0.242716 4.98039 -89.7982 -1.07724 -94.3901 5.34809 -7.22636e-06 -6.2814e-07 -34.8431 -75.228 -9.81635 24.3286 1.87007e-05 4.90208e-06 -90.9012 -57.9836 -90.7641 22.2916 -9.88446e-07 4.63217e-06 1.86753 5.12508 4.53235 12.9945 -0.242716 -4.98039 90.9399 -4.54872 -93.312 -5.34813 -1.25947e-06 -3.79883e-06 -5.73148 -66.8655 13.1184 -24.3289 0.000322201 -8.65921e-06 -82.092 -75.7676 -82.3311 -22.2915 -0.000108084 -4.47941e-06 4.55684 5.34757 -1.3047 -2.19248 -6.46944 -1.22534e-07 176.086 -10.2123 1.73215 39.0811 -6.73843e-06 -1.23785e-05 0.025145 -0.0686026 14.6991 40.9854 -6.48686e-06 -1.26872e-05 8.69421 5.25378 -66.8024 11.7543 -2.30145e-07 3.05095e-06 0.179253 -0.205813 -18.5664 -2.19251 6.46944 -1.45247e-06 -179.179 -6.284 149.811 -39.0811 -0.00228153 -0.0401928 -0.243153 0.251171 43.3767 -40.9854 7.72618e-06 5.99936e-06 12.5943 -25.1958 -46.7554 -11.7543 -5.6619e-06 -5.58687e-06 0.594875 -0.671686 -21.5681 
